{"title":"Godzilla 1998 BRRip 720p Dual Audio [Hindi-Eng] YsB TeaM SSX","uid":10375333,"size":1168251677,"categoryP":"video","categoryS":"hd___movies","magnet":"?xt=urn:btih:ba37895e811c97cab016c2230c9467c3daf25629&amp;dn=Godzilla+1998+BRRip+720p+Dual+Audio+%5BHindi-Eng%5D+YsB+TeaM+SSX&amp;tr=udp%3A%2F%2Ftracker.openbittorrent.com%3A80&amp;tr=udp%3A%2F%2Fopen.demonii.com%3A1337&amp;tr=udp%3A%2F%2Ftracker.coppersurfer.tk%3A6969&amp;tr=udp%3A%2F%2Fexodus.desync.com%3A6969","seeders":2,"leechers":1,"uploader":"Dj_YsB","files":2,"time":1402985876,"description":"Godzilla 1998 BRRip 720p Dual Audio [Hindi-Eng] YsB TeaM SSX\n &lt;a href=&quot;\nhttp://i.imgur.com/AOhZVYd.jpg&quot; rel=&quot;nofollow&quot; target=&quot;_NEW&quot;&gt;\nhttp://i.imgur.com/AOhZVYd.jpg&lt;/a&gt;\n\nInfo:\nGeneral\nComplete name                            : Godzilla 1998 BRRip 720p Dual Audio [Hindi-Eng] YsB TeaM SSX.mkv\nFormat                                   : Matroska\nFormat version                           : Version 4 / Version 2\nFile size                                : 1.07 GiB\nDuration                                 : 2h 18mn\nOverall bit rate                         : 1 107 Kbps\nMovie name                               : Godzilla 1998 BRRip 720p Dual Audio [Hindi-Eng] YsB TeaM SSX\nEncoded date                             : UTC 2014-06-16 16:20:57\nWriting application                      : mkvmerge v6.9.1 ('Blue Panther') 32bit built on Apr 18 2014 18:15:44\nWriting library                          : libebml v1.3.0 + libmatroska v1.4.1\n\nVideo\nID                                       : 1\nFormat                                   : AVC\nFormat/Info                              : Advanced Video Codec\nFormat profile                           : &lt;a class=&quot;__cf_email__&quot; href=&quot;/cdn-cgi/l/email-protection&quot; data-cfemail=&quot;0d406c64634d413e233c&quot;&gt;[email&amp;#160;protected]&lt;/a&gt;&lt;script cf-hash='f9e31' type=&quot;text/javascript&quot;&gt;\n/* &lt;![CDATA[ */!function(){try{var t=&quot;currentScript&quot;in document?document.currentScript:function(){for(var t=document.getElementsByTagName(&quot;script&quot;),e=t.length;e--;)if(t[e].getAttribute(&quot;cf-hash&quot;))return t[e]}();if(t&amp;&amp;t.previousSibling){var e,r,n,i,c=t.previousSibling,a=c.getAttribute(&quot;data-cfemail&quot;);if(a){for(e=&quot;&quot;,r=parseInt(a.substr(0,2),16),n=2;a.length-n;n+=2)i=parseInt(a.substr(n,2),16)^r,e+=String.fromCharCode(i);e=document.createTextNode(e),c.parentNode.replaceChild(e,c)}}}catch(u){}}();/* ]]&gt; */&lt;/script&gt;\nFormat settings, CABAC                   : Yes\nFormat settings, ReFrames                : 6 frames\nCodec ID                                 : V_MPEG4/ISO/AVC\nDuration                                 : 2h 18mn\nBit rate                                 : 850 Kbps\nWidth                                    : 1 280 pixels\nHeight                                   : 528 pixels\nDisplay aspect ratio                     : 2.40:1\nFrame rate mode                          : Constant\nFrame rate                               : 23.976 fps\nColor space                              : YUV\nChroma subsampling                       : 4:2:0\nBit depth                                : 8 bits\nScan type                                : Progressive\nBits/(Pixel*Frame)                       : 0.052\nStream size                              : 823 MiB (75%)\nTitle                                    : YsB TeaM SSX\nWriting library                          : x264 core 138 r2358 9e941d1\nDefault                                  : Yes\nForced                                   : No\n\nAudio #1\nID                                       : 2\nFormat                                   : AC-3\nFormat/Info                              : Audio Coding 3\nMode extension                           : CM (complete main)\nFormat settings, Endianness              : Big\nCodec ID                                 : A_AC3\nDuration                                 : 2h 18mn\nBit rate mode                            : Constant\nBit rate                                 : 128 Kbps\nChannel(s)                               : 2 channels\nChannel positions                        : Front: L R\nSampling rate                            : 48.0 KHz\nBit depth                                : 16 bits\nCompression mode                         : Lossy\nStream size                              : 127 MiB (12%)\nTitle                                    : YsB TeaM SSX\nLanguage                                 : Hindi\nDefault                                  : Yes\nForced                                   : No\n\nAudio #2\nID                                       : 3\nFormat                                   : AC-3\nFormat/Info                              : Audio Coding 3\nMode extension                           : CM (complete main)\nFormat settings, Endianness              : Big\nCodec ID                                 : A_AC3\nDuration                                 : 2h 18mn\nBit rate mode                            : Constant\nBit rate                                 : 128 Kbps\nChannel(s)                               : 2 channels\nChannel positions                        : Front: L R\nSampling rate                            : 48.0 KHz\nBit depth                                : 16 bits\nCompression mode                         : Lossy\nStream size                              : 127 MiB (12%)\nTitle                                    : YsB TeaM SSX\nLanguage                                 : English\nDefault                                  : No\nForced                                   : No\n\nScreenshot: &lt;a href=&quot;\nhttp://i.imgur.com/lwSKBBE.jpg&quot; rel=&quot;nofollow&quot; target=&quot;_NEW&quot;&gt;\nhttp://i.imgur.com/lwSKBBE.jpg&lt;/a&gt; &lt;a href=&quot;\nhttp://i.imgur.com/G1ZOfW6.jpg&quot; rel=&quot;nofollow&quot; target=&quot;_NEW&quot;&gt;\nhttp://i.imgur.com/G1ZOfW6.jpg&lt;/a&gt; &lt;a href=&quot;\nhttp://i.imgur.com/4OqJikW.jpg&quot; rel=&quot;nofollow&quot; target=&quot;_NEW&quot;&gt;\nhttp://i.imgur.com/4OqJikW.jpg&lt;/a&gt;\n\nThanks\nGPsoft, HDDR...\nTeaM SSX - Maverick Dude, Hari, Hemkumar, Sajan...","torrent":{"xt":"urn:btih:ba37895e811c97cab016c2230c9467c3daf25629","amp;dn":"Godzilla+1998+BRRip+720p+Dual+Audio+%5BHindi-Eng%5D+YsB+TeaM+SSX","amp;tr":["udp%3A%2F%2Ftracker.openbittorrent.com%3A80","udp%3A%2F%2Fopen.demonii.com%3A1337","udp%3A%2F%2Ftracker.coppersurfer.tk%3A6969","udp%3A%2F%2Fexodus.desync.com%3A6969"],"infoHash":"ba37895e811c97cab016c2230c9467c3daf25629","infoHashBuffer":{"type":"Buffer","data":[186,55,137,94,129,28,151,202,176,22,194,35,12,148,103,195,218,242,86,41]},"announce":[],"urlList":[]}}